<?xml version="1.0"?>
<svg xmlns="http://www.w3.org/2000/svg" id="Capa_1" enable-background="new 0 0 497 497" height="512px" viewBox="0 0 497 497" width="512px" class=""><g><g><g><g><path d="m386.75 439.622v-382.244l-142.405-7.257-134.095 7.257v382.244l138.25 18.937z" fill="#f7f8f4" data-original="#F7F8F4" class=""/></g></g><g><g><path d="m386.75 439.622v-382.244l-30-21.603v420.253z" fill="#eee" data-original="#EEE"/></g></g><g><g><path d="m110.25 439.622v24.981c0 17.892 14.504 32.396 32.396 32.396h211.707c17.892 0 32.397-14.504 32.397-32.396v-24.981z" fill="#80b6fc" data-original="#80B6FC" class=""/></g></g><g><g><path d="m356.75 439.622v24.981c0 17.892-14.504 32.397-32.397 32.397h30c17.892 0 32.397-14.504 32.397-32.397v-24.981z" fill="#62a4fb" data-original="#62A4FB"/></g></g><g><g><path d="m386.75 57.378v-24.982c0-17.892-14.504-32.396-32.396-32.396h-211.708c-17.892 0-32.396 14.504-32.396 32.396v24.981h276.5z" fill="#80b6fc" data-original="#80B6FC" class=""/></g></g><g><g><path d="m354.354 0h-30c17.892 0 32.396 14.504 32.396 32.396v24.981h30v-24.98c0-17.892-14.504-32.397-32.396-32.397z" fill="#62a4fb" data-original="#62A4FB"/></g></g><g><g><path d="m345.487 188.255c0-54.343-44.694-98.247-99.329-96.96-53.273 1.256-95.917 46.1-94.616 99.372 1.045 42.777 29.788 78.68 68.975 90.469 2.249.677 4.152 2.193 5.326 4.228l17.197 29.786c3.573 6.189 12.506 6.189 16.08 0l18.457-31.969c1.07-1.854 2.747-3.286 4.753-4.033 36.877-13.73 63.157-49.231 63.157-90.893z" fill="#e3e0e4" data-original="#E3E0E4" class=""/></g></g><g><g><path d="m246.158 91.296c-4.282.101-8.494.487-12.621 1.133 46.424 7.227 81.95 47.377 81.95 95.827 0 41.662-26.28 77.163-63.158 90.894-2.006.747-3.682 2.18-4.753 4.033l-11.497 19.913 6.96 12.055c3.573 6.189 12.506 6.189 16.08 0l18.457-31.969c1.07-1.854 2.747-3.286 4.753-4.033 36.878-13.731 63.158-49.232 63.158-90.894 0-54.343-44.694-98.247-99.329-96.959z" fill="#d4cfd5" data-original="#D4CFD5" class=""/></g></g><g><g><path d="m284.784 168.23h-13.74c-2.507 0-4.539-2.032-4.539-4.539v-13.74c0-2.507-2.032-4.539-4.539-4.539h-26.932c-2.507 0-4.539 2.032-4.539 4.539v13.74c0 2.507-2.032 4.539-4.539 4.539h-13.74c-2.507 0-4.539 2.032-4.539 4.539v26.931c0 2.507 2.032 4.539 4.539 4.539h13.74c2.507 0 4.539 2.032 4.539 4.539v13.74c0 2.507 2.032 4.539 4.539 4.539h26.932c2.507 0 4.539-2.032 4.539-4.539v-13.74c0-2.507 2.032-4.539 4.539-4.539h13.74c2.507 0 4.539-2.032 4.539-4.539v-26.932c0-2.506-2.033-4.538-4.539-4.538z" fill="#80e29e" data-original="#80E29E" class="active-path" style="fill:#297D3C" data-old_color="#80e29e"/></g></g><g><g><path d="m300.783 402.567h-104.566c-6.566 0-11.888-5.322-11.888-11.888v-25.159c0-6.566 5.322-11.888 11.888-11.888h104.566c6.566 0 11.888 5.323 11.888 11.888v25.159c0 6.566-5.322 11.888-11.888 11.888z" fill="#80e29e" data-original="#80E29E" class="active-path" style="fill:#297D3C" data-old_color="#80e29e"/></g></g><g><g><path d="m300.783 353.632h-30c6.566 0 11.888 5.323 11.888 11.888v25.159c0 6.566-5.322 11.888-11.888 11.888h30c6.566 0 11.888-5.322 11.888-11.888v-25.159c0-6.566-5.322-11.888-11.888-11.888z" fill="#77d192" data-original="#77D192" class="" style="fill:#297D3C" data-old_color="#77d192"/></g></g></g></g> </svg>
