<svg id="Capa_1" enable-background="new 0 0 512 512" height="512" viewBox="0 0 512 512" width="512" xmlns="http://www.w3.org/2000/svg"><g><g><path clip-rule="evenodd" d="m305.989 88.07c-1.105-13.833 6.803-30.217 24.972-60.207 4.082-6.746 3.713-9.326-4.819-3.855-16.497 10.601-27.58 8.929-32.172-2.183-1.927-4.649-3.6-9.411-5.357-12.104-1.729-2.608-3.543-3.26-5.754 0-1.757 2.608-3.77 7.71-6.208 16.271-2.835 10.063-13.946 14.513-17.999 14.513-4.082 0-15.193-4.45-18.028-14.513-2.409-8.56-4.422-13.663-6.179-16.271-2.211-3.26-4.025-2.608-5.754 0-1.786 2.693-3.458 7.455-5.386 12.104-4.592 11.112-15.675 12.784-32.172 2.183-8.532-5.471-8.9-2.891-4.819 3.855 14.116 23.272 22.024 38.352 24.349 50.399 21.827 17.405 75.626 25.852 95.326 9.808z" fill="#ccf49e" fill-rule="evenodd"/></g><g><path clip-rule="evenodd" d="m191.106 504.5h135.065c112.332 0 128.914-159.928 37.047-227.504-12.727-9.383-24.83-19.219-35.035-31.351-77.127-3.458 25.199-140.879-80.954-140.908h-23.725l-12.132 62.276c-4.677 23.981 4.62 44.305-8.078 60.632-12.585 16.214-30.273 30.954-50.823 49.35-102.127 87.76-55.499 227.505 38.635 227.505z" fill="#ccf49e" fill-rule="evenodd"/></g><g><path clip-rule="evenodd" d="m326.171 504.5c112.332 0 128.914-159.928 37.047-227.504-12.727-9.383-24.83-19.219-35.035-31.351-2.608 1.644-5.697 2.608-9.014 2.608h-29.422c9.722 10.942 20.975 20.041 32.795 28.743 91.838 67.577 75.285 227.504-37.047 227.504z" fill="#b3e59e" fill-rule="evenodd"/></g><g><path clip-rule="evenodd" d="m264.917 453.194 54.083-53.602 7.37-7.313c18.169-18.822 18.169-49.634 0-68.455-16.497-17.121-43.17-12.841-60.829 3.061-3.26 2.92-4.393 4.394-5.272 4.394s-2.041-1.474-5.272-4.394c-17.659-15.902-44.332-20.182-60.829-3.061-18.169 18.822-18.169 49.634 0 68.455l7.37 7.313 54.083 53.602c1.192.945 2.97 2.898 4.649 2.891 1.684-.006 3.447-1.94 4.647-2.891z" fill="#ff8086" fill-rule="evenodd"/></g><g><path clip-rule="evenodd" d="m294.453 129.795 35.998.283c11.565.113 21.004-9.439 21.004-21.004 0-11.537-9.467-21.004-21.004-21.004h-24.462-12.84l-9.042 16.667z" fill="#f1d0a5" fill-rule="evenodd"/></g><g><path clip-rule="evenodd" d="m285.24 172.116h45.211.113c11.508-.085 20.89-9.496 20.89-21.033s-9.439-21.004-21.004-21.004l-17.489-7.086-18.226 7.086-7.625 12.812c-5.81 9.751-2.096 19.218-1.87 29.225z" fill="#f1d0a5" fill-rule="evenodd"/></g><g><path clip-rule="evenodd" d="m278.494 248.253h40.675c3.316 0 6.406-.964 9.014-2.608 4.847-3.033 8.05-8.39 8.05-14.456 0-9.383-7.682-17.064-17.064-17.064l-17.999-10.148-22.676 10.148c-9.382 0-17.064 7.682-17.064 17.064s7.682 17.064 17.064 17.064z" fill="#f1d0a5" fill-rule="evenodd"/></g><g><path clip-rule="evenodd" d="m278.494 214.124h40.675 13.152c10.516 0 19.133-9.468 19.133-21.004 0-11.565-8.617-21.004-19.133-21.004l-24.972-10.006-22.194 10.006c-2.211 0-4.45 0-6.661 0-10.544 0-19.161 9.439-19.161 21.004 0 11.537 8.617 21.004 19.161 21.004z" fill="#f1d0a5" fill-rule="evenodd"/></g><g><path clip-rule="evenodd" d="m305.989 88.07c-1.105-13.833 6.803-30.217 24.972-60.207 4.082-6.746 3.713-9.326-4.819-3.855-11.253 7.228-19.983 8.759-25.851 5.442-12.302 20.352-19.757 34.355-22.818 45.609 7.171 1.474 12.982 6.435 15.675 13.011z" fill="#b3e59e" fill-rule="evenodd"/></g><g><path clip-rule="evenodd" d="m328.183 245.645c4.847-3.033 8.05-8.39 8.05-14.456 0-3.487-1.049-6.718-2.835-9.411-1.219 3.94-3.855 7.285-7.285 9.439-2.636 1.644-5.726 2.608-9.014 2.608h-40.704c-5.896 0-11.14-3.061-14.201-7.653-.51 1.587-.765 3.26-.765 5.017 0 9.383 7.682 17.064 17.064 17.064h11.253 29.422c3.318 0 6.408-.964 9.015-2.608z" fill="#e5c093" fill-rule="evenodd"/></g><g><path clip-rule="evenodd" d="m330.224 198.279h-13.124-40.704c-6.973 0-13.124-4.167-16.469-10.318-.368 1.644-.595 3.373-.595 5.159 0 11.537 8.617 21.004 19.161 21.004h40.675 13.152c10.516 0 19.133-9.468 19.133-21.004 0-3.912-.964-7.54-2.664-10.686-2.125 9.07-9.664 15.845-18.565 15.845z" fill="#e5c093" fill-rule="evenodd"/></g><g><path clip-rule="evenodd" d="m330.564 172.116c11.508-.085 20.89-9.496 20.89-21.033 0-7.03-3.515-13.294-8.872-17.121v.255c0 11.508-9.382 20.948-20.89 21.004h-.113-26.871c-.17 9.297-1.276 16.837-9.467 16.894h45.211.112z" fill="#e5c093" fill-rule="evenodd"/></g><g><path clip-rule="evenodd" d="m330.451 130.079c11.565 0 21.004-9.439 21.004-21.004 0-7.682-4.195-14.456-10.431-18.113.142.879.198 1.814.198 2.75 0 11.537-9.467 21.004-21.004 21.004h-25.482v15.364h35.715z" fill="#e5c093" fill-rule="evenodd"/></g><g><path clip-rule="evenodd" d="m326.369 392.278c18.169-18.822 18.169-49.634 0-68.455-6.434-6.661-14.399-10.091-22.79-10.857 16.043 18.963 15.335 48.075-2.126 66.131l-7.37 7.313-52.92 52.468 14.456 14.315c1.192.945 2.97 2.898 4.649 2.891 1.685-.006 3.449-1.94 4.649-2.891l54.083-53.601z" fill="#e5646e" fill-rule="evenodd"/></g><g><path clip-rule="evenodd" d="m258.851 146.122c0 15.278 18.679 25.908 26.248 25.993h.142c9.581-.085 9.496-10.375 9.496-21.741v-20.296-34.015c-.028-2.835-.595-5.527-1.587-7.994-3.146-7.71-10.658-13.238-19.558-13.464-13.549-.312-44.105.368-48.215.737-5.499.51-10.346 1.389-14.711 2.92-10.233 3.572-17.687 10.573-24.263 24.009-4.96 6.548-2.92 5.839-11.083 5.839h-27.183-17.602v101.45h17.602 27.183c8.163 0 6.689 9.156 27.977 18.085 12.699-16.327 20.21-34.1 20.21-58.563v-54.367h23.725c5.924 0 11.622 4.592 11.622 12.047v19.36z" fill="#ffe4c1" fill-rule="evenodd"/></g><g><path clip-rule="evenodd" d="m217.637 202.814c-17.149 6.208-26.134-10.573-36.339-18.085h-33.164-7.653v4.592 20.239h7.653 27.183c8.163 0 6.689 9.156 27.977 18.085 6.038-7.766 10.885-15.845 14.343-24.831z" fill="#f1d0a5" fill-rule="evenodd"/></g><g><path clip-rule="evenodd" d="m272.06 114.914c.028-10.176-9.807-14.315-15.732-14.315h-15.505-12.699c-3.713 0-4.62 2.948-4.62 5.698v8.419h23.725c5.924 0 11.622 4.592 11.622 12.047v19.36c0 8.957 6.406 16.299 13.237 20.891-.028-.709-.028-1.417-.028-2.126z" fill="#f1d0a5" fill-rule="evenodd"/></g><g><path clip-rule="evenodd" d="m93.939 218.631h42.036c2.466 0 4.507-2.013 4.507-4.507v-4.564-101.45-4.592c0-2.466-2.041-4.479-4.507-4.479h-42.036c-2.494 0-4.507 2.013-4.507 4.479v110.606c0 2.495 2.013 4.507 4.507 4.507z" fill="#c3ddff" fill-rule="evenodd"/></g><g><path clip-rule="evenodd" d="m140.482 214.124v-4.564-20.239c0 2.466-2.041 4.507-4.507 4.507h-42.036c-2.494 0-4.507-2.041-4.507-4.507v24.803c0 2.494 2.013 4.507 4.507 4.507h42.036c2.466 0 4.507-2.012 4.507-4.507z" fill="#9dc6fb" fill-rule="evenodd"/></g><g><path d="m260.537 321.298c-.091.082-.181.163-.27.242-.083-.076-.167-.152-.252-.229-1.855-1.671-3.826-3.243-5.891-4.702-19.268-13.611-46.752-17.298-65.352 2.005-20.992 21.746-20.992 57.128 0 78.873.037.039.075.077.113.115l61.456 60.919c2.58 2.548 6.183 5.063 9.928 5.06 3.744-.003 7.35-2.507 9.929-5.061l61.455-60.918c.038-.038.076-.076.113-.115 20.992-21.745 20.992-57.128.005-78.868-19.227-19.954-47.945-15.348-67.259-.616-1.375 1.049-2.703 2.149-3.975 3.295zm60.436 7.734c15.429 15.982 15.446 41.976.054 57.982l-60.758 60.228-60.759-60.228c-15.393-16.005-15.375-41.999.059-57.987 14.061-14.594 36.467-9.124 50.4 3.422.924.834 1.667 1.544 2.278 2.126 2.168 2.066 4.409 4.202 8.022 4.202 3.598 0 5.79-2.087 7.909-4.106.624-.595 1.395-1.329 2.382-2.214 13.942-12.555 36.347-18.022 50.413-3.425z"/><path d="m428.436 374.022c-.596-4.099-4.399-6.94-8.5-6.343-4.099.595-6.939 4.401-6.343 8.5 5.18 35.649-3.36 70.376-22.843 92.895-15.808 18.269-38.138 27.926-64.579 27.926h-135.065c-36.268 0-67.458-23.365-81.398-60.976-14.574-39.324-10.839-103.078 47.653-153.34.039-.034.077-.067.115-.102 3.242-2.903 6.413-5.715 9.504-8.457 37.17-32.966 64.026-56.785 64.026-105.043v-46.867h16.225c1.426 0 4.122.95 4.122 4.547v19.36c0 9.575 5.196 17.754 11.894 23.636-6.892 5.158-11.412 13.704-11.412 23.361 0 8.401 3.419 15.963 8.845 21.184-4.177 4.405-6.748 10.349-6.748 16.884 0 13.545 11.019 24.564 24.564 24.564h40.676c2.437 0 4.79-.362 7.015-1.026 10.427 11.417 22.212 20.66 32.592 28.312 20.103 14.773 35.869 35.224 45.595 59.143 1.185 2.912 3.989 4.677 6.95 4.677.941 0 1.897-.178 2.823-.554 3.837-1.561 5.683-5.936 4.123-9.773-10.771-26.488-28.271-49.165-50.599-65.573-9.296-6.853-19.759-15.044-29.002-24.851 3.175-4.139 5.068-9.311 5.068-14.918 0-4.011-.973-7.797-2.685-11.144 10.411-3.877 17.906-14.478 17.906-26.924 0-8.463-3.468-16.073-8.958-21.298 5.509-5.206 8.958-12.575 8.958-20.739 0-8.305-3.572-15.79-9.258-21.004 5.686-5.215 9.258-12.699 9.258-21.004 0-15.717-12.787-28.504-28.504-28.504h-16.6c1.953-11.455 10.155-26.753 23.527-48.824 1.922-3.178 6.425-10.62 1.079-15.828-5.396-5.257-12.804-.507-16.37 1.78-10.404 6.686-15.499 6.164-17.208 5.626-1.072-.336-2.651-1.154-3.978-4.364-.447-1.081-.879-2.168-1.304-3.232-3.305-8.292-6.425-16.113-14.333-15.713-7.736.402-11.532 8.724-15.832 23.944-1.747 6.203-9.15 8.879-10.783 9.042-1.635-.159-9.054-2.824-10.808-9.048-4.298-15.215-8.094-23.536-15.83-23.938-7.895-.403-11.029 7.421-14.333 15.713-.424 1.064-.857 2.151-1.304 3.232-1.327 3.21-2.905 4.028-3.978 4.364-1.708.535-6.805 1.06-17.215-5.63-3.561-2.283-10.968-7.035-16.363-1.776-5.346 5.208-.843 12.65 1.084 15.835 10.793 17.794 18.426 31.504 21.885 42.218-9.177 4.829-15.969 12.617-21.805 24.356-2.15 2.885-1.2 2.283-4.666 2.283h-27.709c-1.308-5.202-6.02-9.071-11.634-9.071h-42.037c-6.621 0-12.007 5.374-12.007 11.978v36.283c0 4.142 3.358 7.5 7.5 7.5s7.5-3.358 7.5-7.5v-33.261h36.05v104.592h-36.05v-36.692c0-4.142-3.358-7.5-7.5-7.5s-7.5 3.358-7.5 7.5v39.684c0 6.621 5.386 12.007 12.007 12.007h42.036c5.606 0 10.313-3.867 11.628-9.071h27.715c.132 0 .213.008.226.003.438.255 1.547 1.418 2.363 2.273 2.705 2.834 6.44 6.738 13.527 10.824-9.351 10.516-21.022 20.87-34.408 32.743-3.09 2.74-6.26 5.552-9.5 8.453-27.588 23.724-46.66 53.052-55.159 84.822-7.637 28.546-6.474 58.753 3.276 85.058 16.177 43.649 52.757 70.764 95.463 70.764h135.065c30.927 0 57.18-11.45 75.922-33.111 22.292-25.766 32.14-64.969 26.343-104.867zm-109.266-133.269h-40.676c-5.273 0-9.564-4.291-9.564-9.564s4.291-9.564 9.564-9.564h40.676c5.273 0 9.564 4.291 9.564 9.564s-4.291 9.564-9.564 9.564zm13.152-34.129h-53.828c-6.321 0-11.661-6.184-11.661-13.504 0-7.446 5.231-13.504 11.661-13.504h53.828c6.414 0 11.633 6.058 11.633 13.504 0 7.32-5.327 13.504-11.633 13.504zm-1.871-42.008h-28.994c.767-4.257.78-8.988.779-13.946v-13.091h28.215c7.446 0 13.504 6.058 13.504 13.504 0 7.462-6.058 13.533-13.504 13.533zm0-69.046c7.446 0 13.504 6.058 13.504 13.504s-6.058 13.504-13.504 13.504h-28.215v-26.57c-.001-.147-.011-.292-.014-.438h3.748.01.012zm-130.027-58.65c6.086 2 11.593 2.244 16.462.718 4.193-1.315 9.914-4.629 13.351-12.948.419-1.014.827-2.033 1.227-3.036.577 1.734 1.225 3.833 1.941 6.372 3.929 13.947 18.62 19.98 25.246 19.98 6.618 0 21.29-6.033 25.217-19.974.718-2.541 1.366-4.642 1.943-6.377.4 1.002.808 2.021 1.227 3.036 3.438 8.319 9.158 11.633 13.352 12.948 4.871 1.527 10.381 1.282 16.471-.72-10.806 18.686-16.861 31.923-18.192 43.653h-.959c-5.033-7.925-13.801-13.218-23.948-13.462-13.968-.32-44.558.361-49.076.767-3.08.284-5.968.698-8.696 1.244-2.976-9.123-8.206-19.481-15.566-32.201zm-11.664 172.063c-2.942-3.084-6.604-6.922-13.442-6.922h-27.336v-86.45s28.807.007 29.412.013c6.654.067 9.194-.766 13.214-6.4.942-1.155 1.786-2.375 2.532-3.662 8.519-17.452 17.771-21.354 32.905-22.748 3.592-.322 33.796-1.023 47.365-.709 7.697.185 13.77 6.341 13.827 13.959v54.607c0 4.561.001 12.141-1.322 13.878-.115.027-.354.067-.759.067-3.931 0-18.804-7.868-18.804-18.493v-19.36c0-10.961-8.399-19.547-19.121-19.547h-23.725c-4.142 0-7.5 3.358-7.5 7.5 0 15.47-10.509 28.814-25.556 32.451-4.026.973-6.501 5.026-5.528 9.052s5.027 6.5 9.052 5.528c8.521-2.06 16.035-6.27 22.031-11.972v19.308c0 20.035-5.478 35.243-15.125 49.163-6.542-3.421-9.584-6.605-12.12-9.263z"/></g></g></svg>