<?xml version="1.0"?>
<svg xmlns="http://www.w3.org/2000/svg" id="Layer_1" enable-background="new 0 0 256 256" height="512px" viewBox="0 0 256 256" width="512px" class=""><g><g><g><path d="m76.758 112.217 35.458-35.458c1.415-1.415 1.415-3.708 0-5.123l-6.427-6.427.001-.001c-7.06-7.06-7.619-7.755-10-9.475 12.927-7.855 26.734-12.752 40.276-14.571 2.203-.296 4.127-1.817 4.64-3.98.74-3.123-1.448-6.155-4.574-6.416-25.86-2.151-52.414 5.966-73.033 24.363-7.34 4.904-36.114 35.495-32.331 80.996.246 2.96 2.978 5.08 5.92 4.668h.001c2.198-.733 4.253-3.208 4.581-5.502 1.899-13.294 6.758-26.822 14.464-39.502 1.721 2.382 2.468 2.993 9.475 10l-.001.001 6.427 6.427c1.414 1.414 3.708 1.414 5.123 0z" fill="#f9cfcf" data-original="#F9CFCF" class=""/></g><g><path d="m105.789 65.209c-6.954-6.956-7.602-7.741-9.977-9.461 2.267-1.375 4.556-2.675 6.87-3.869-1.394-5.603-3.967-10.97-7.707-15.719-11.461 4.11-22.306 10.432-31.874 18.967-3.16 2.11-5.859 4.807-7.973 7.973-8.535 9.568-14.857 20.413-18.968 31.874 4.749 3.74 10.116 6.313 15.719 7.707 1.194-2.315 2.494-4.604 3.869-6.871 1.748 2.415 2.596 3.115 9.46 9.978l-.001.001 6.427 6.427c1.415 1.415 3.708 1.415 5.123 0l35.458-35.458c1.415-1.415 1.415-3.708 0-5.123z" fill="#a4c9ff" data-original="#A4C9FF"/></g><g><path d="m35.969 142.843c-1.638 0-3.25-.556-4.54-1.588-1.549-1.238-2.492-3.001-2.655-4.964-2.059-24.762 5.516-44.582 12.233-56.849 7.507-13.71 16.53-22.944 20.86-25.896 20.228-17.997 47.344-27.031 74.43-24.773 2.062.172 3.946 1.239 5.171 2.927 1.241 1.713 1.673 3.879 1.184 5.943-.682 2.874-3.222 5.085-6.32 5.501-12.529 1.683-25.274 6.106-37.028 12.837 1.07.961 2.383 2.279 4.871 4.776l9.456 9.464c1.062 1.062 1.646 2.474 1.646 3.976 0 1.501-.585 2.913-1.646 3.976l-35.458 35.458v.001c-2.191 2.19-5.758 2.191-7.951-.001l-9.433-9.427c-2.514-2.505-3.84-3.826-4.805-4.901-6.591 11.512-10.979 23.993-12.733 36.271-.433 3.026-3.037 6.152-5.929 7.116-.116.038-.234.066-.355.083-.332.047-.666.07-.998.07zm92.136-110.409c-23.363 0-46.207 8.603-63.675 24.188-.069.063-.143.119-.221.171-5.926 3.959-35.233 33.646-31.449 79.167.071.855.485 1.627 1.166 2.171.647.519 1.474.771 2.3.703 1.418-.571 2.852-2.342 3.063-3.826 1.957-13.693 7.052-27.614 14.735-40.258.348-.572.959-.933 1.629-.959.678-.033 1.308.283 1.701.827 1.34 1.854 1.996 2.508 6.259 6.756l9.435 9.429c.633.632 1.663.632 2.295-.001l35.458-35.457c.306-.307.475-.714.475-1.147s-.169-.841-.475-1.147l-9.457-9.464c-4.224-4.242-4.874-4.894-6.726-6.232-.543-.393-.854-1.031-.827-1.701.027-.669.387-1.281.96-1.629 12.897-7.837 27.091-12.97 41.047-14.844 1.47-.197 2.659-1.186 2.961-2.459.221-.93.027-1.903-.529-2.672-.54-.744-1.365-1.214-2.265-1.289-2.62-.219-5.245-.327-7.86-.327zm-51.347 79.783h.01z" fill="#3762cc" data-original="#3762CC" class="" style="fill:#3762CC"/></g><g><path d="m140.706 218.817c-.513-2.162-2.437-3.683-4.639-3.979-13.541-1.819-27.349-6.716-40.276-14.571 2.381-1.72 2.94-2.415 10-9.475l-.001-.001 7.28-7.281c.943-.943.943-2.472 0-3.415l-37.166-37.166c-.943-.943-2.472-.943-3.415 0l-7.281 7.281.001.001c-7.007 7.007-7.754 7.618-9.475 10-7.846-12.912-12.741-26.704-14.565-40.231-.322-2.386-2.119-4.301-4.48-4.773h-.001c-2.911-.582-5.653 1.517-5.904 4.475-3.88 45.608 24.964 76.278 32.315 81.188 20.619 18.397 47.172 26.514 73.033 24.363 3.126-.26 5.314-3.293 4.574-6.416z" fill="#f9cfcf" data-original="#F9CFCF" class=""/></g><g><path d="m95.79 200.267c2.381-1.72 2.94-2.415 10-9.475l-.001-.001 7.28-7.281c.943-.943.943-2.472 0-3.415l-37.166-37.166c-.943-.943-2.472-.943-3.415 0l-7.281 7.281.001.001c-7.007 7.007-7.754 7.618-9.475 10-1.383-2.275-2.64-4.585-3.838-6.908l-.016.016c-5.592 1.391-10.947 3.958-15.69 7.685 8.015 22.337 22.086 36.645 26.908 39.866 9.572 8.541 20.432 14.836 31.9 18.947l13.107-13.107c-4.164-1.87-8.285-3.995-12.314-6.443z" fill="#4671c6" data-original="#4671C6"/></g><g><path d="m128.11 227.566c-24.295 0-48.053-8.931-66.242-25.114-4.34-2.957-13.38-12.214-20.893-25.956-6.724-12.297-14.295-32.166-12.184-56.984.169-1.99 1.179-3.817 2.77-5.012 1.576-1.183 3.586-1.639 5.519-1.255 3.196.64 5.635 3.238 6.071 6.467 1.688 12.517 6.11 25.246 12.832 36.985.966-1.076 2.292-2.398 4.81-4.906l10.28-10.276c1.722-1.721 4.522-1.72 6.244-.001l37.166 37.167c1.721 1.722 1.721 4.522 0 6.244l-10.289 10.296c-2.5 2.511-3.817 3.834-4.892 4.798 11.753 6.729 24.498 11.153 37.029 12.837 3.099.417 5.638 2.627 6.319 5.501.489 2.064.058 4.23-1.184 5.943-1.225 1.688-3.109 2.755-5.171 2.927-2.728.226-5.461.338-8.185.339zm-92.401-110.457c-.625 0-1.23.201-1.746.589-.681.512-1.114 1.296-1.187 2.152-3.881 45.618 25.49 75.386 31.433 79.356.077.052.151.108.22.171 19.423 17.33 45.493 26.021 71.536 23.862.899-.075 1.725-.545 2.265-1.289.557-.768.75-1.742.529-2.673-.302-1.272-1.491-2.261-2.96-2.458-13.958-1.876-28.153-7.009-41.048-14.844-.573-.348-.933-.96-.96-1.629-.027-.67.284-1.309.827-1.701 1.854-1.34 2.505-1.993 6.738-6.242l10.298-10.308c.162-.162.162-.426 0-.588l-37.166-37.166c-.162-.16-.426-.161-.588.001l-10.291 10.288c-4.26 4.245-4.915 4.897-6.254 6.752-.393.543-1.022.854-1.701.827-.67-.026-1.282-.387-1.629-.959-7.827-12.881-12.958-27.06-14.838-41.003-.208-1.538-1.369-2.775-2.89-3.079-.196-.039-.393-.059-.588-.059z" fill="#3762cc" data-original="#3762CC" class="" style="fill:#3762CC"/></g><g><path d="m200.869 192.903c18.342-20.558 26.466-47.015 24.382-72.804-.211-2.606-2.287-4.796-4.897-4.94-2.815-.155-5.134 1.873-5.486 4.541-1.794 13.616-6.702 27.509-14.602 40.51-1.72-2.381-2.415-2.94-9.475-10l-6.772-6.772c-.943-.943-2.472-.943-3.415 0l-37.166 37.166c-.943.943-.943 2.472 0 3.415l6.772 6.772c7.007 7.007 7.618 7.754 10 9.475-13.202 8.022-27.324 12.96-41.142 14.683-2.206.275-3.863 2.139-3.863 4.362v.001c0 3.03 2.467 5.76 5.488 5.985 25.6 1.912 51.809-6.227 72.208-24.429 3.164-2.112 5.857-4.805 7.968-7.965z" fill="#f9cfcf" data-original="#F9CFCF" class=""/></g><g><path d="m200.871 192.9c8.536-9.568 14.857-20.413 18.968-31.874-4.749-3.739-10.115-6.312-15.719-7.707-1.194 2.315-2.494 4.604-3.869 6.871-1.719-2.376-2.505-3.023-9.46-9.978l-6.772-6.772c-.943-.943-2.472-.943-3.415 0l-37.166 37.166c-.943.943-.943 2.472 0 3.415l6.859 6.859c6.778 6.78 7.487 7.632 9.891 9.373-2.267 1.375-4.556 2.675-6.87 3.868 1.394 5.603 3.967 10.97 7.707 15.719 11.461-4.111 22.306-10.432 31.874-18.968 3.165-2.113 5.862-4.813 7.972-7.972z" fill="#6bdddd" data-original="#6BDDDD" class=""/></g><g><path d="m128.193 227.578c-2.538 0-5.088-.095-7.648-.286-4.047-.302-7.339-3.882-7.339-7.979 0-3.219 2.414-5.947 5.615-6.347 12.813-1.599 25.85-6.062 37.875-12.947-1.073-.964-2.392-2.287-4.89-4.795l-9.782-9.789c-1.722-1.722-1.722-4.522 0-6.244l37.166-37.165c.833-.834 1.941-1.293 3.121-1.293s2.288.459 3.122 1.293l9.8 9.792c2.502 2.493 3.822 3.808 4.784 4.88 6.773-11.83 11.208-24.653 12.868-37.258.499-3.789 3.756-6.475 7.579-6.277 3.569.196 6.484 3.109 6.779 6.775 2.181 26.998-6.854 54.032-24.791 74.193-2.226 3.299-5.024 6.098-8.323 8.323-18.37 16.347-41.539 25.124-65.936 25.124zm54.119-82.846c-.078 0-.192.021-.292.12l-37.167 37.166c-.162.162-.162.426 0 .588l9.787 9.794c4.237 4.254 4.889 4.907 6.741 6.246.544.393.854 1.031.827 1.701-.026.669-.387 1.281-.96 1.629-13.179 8.008-27.679 13.181-41.932 14.958-1.203.15-2.11 1.173-2.11 2.378 0 2.016 1.666 3.844 3.637 3.991 26.128 1.953 51.248-6.546 70.728-23.926.069-.063.143-.119.22-.171 2.95-1.971 5.445-4.466 7.416-7.416.052-.077.108-.15.171-.22 17.273-19.36 25.978-45.353 23.881-71.312-.134-1.655-1.457-3.018-3.013-3.104-1.744-.088-3.17 1.112-3.395 2.806-1.848 14.035-6.991 28.313-14.875 41.287-.348.573-.96.934-1.629.96-.697.027-1.309-.283-1.701-.826-1.34-1.854-1.991-2.504-6.235-6.731l-9.805-9.798c-.101-.099-.216-.12-.294-.12z" fill="#3762cc" data-original="#3762CC" class="" style="fill:#3762CC"/></g><g><path d="m225.251 135.899c4.791-59.274-44.323-110.208-105.378-105.132-2.96.246-5.08 2.978-4.668 5.92v.001c.472 2.361 2.387 4.158 4.773 4.48 13.527 1.824 27.319 6.719 40.231 14.565-2.375 1.716-2.126 1.585-16.425 15.899-1.413 1.415-1.416 3.711-.002 5.125l35.46 35.46c1.414 1.414 3.71 1.411 5.125-.002 14.332-14.318 14.182-14.049 15.899-16.425 7.9 13.001 12.808 26.894 14.602 40.51.352 2.668 2.672 4.697 5.487 4.541 2.61-.145 4.685-2.336 4.896-4.942z" fill="#f9cfcf" data-original="#F9CFCF" class=""/></g><g><path d="m161.095 36.106-.07.054c-3.74 4.749-6.313 10.116-7.707 15.719l-.005.022c2.32 1.197 4.626 2.452 6.897 3.832-2.382 1.721-2.993 2.468-10 9.475l-8.988 8.988 40.581 40.581 8.988-8.988c7.06-7.06 7.755-7.619 9.475-10 1.38 2.271 2.635 4.577 3.832 6.897l.022-.005c5.601-1.394 10.966-3.966 15.714-7.703-9.776-27.182-31.301-49.017-58.739-58.872z" fill="#f9a7a7" data-original="#F9A7A7" class="active-path" style="fill:#297D3C" data-old_color="#f9a7a7"/></g><g><path d="m220.047 142.85c-3.64 0-6.681-2.638-7.161-6.288-1.661-12.608-6.097-25.432-12.869-37.261-1.232 1.354-3.41 3.526-8.628 8.731l-5.608 5.598c-2.193 2.189-5.763 2.192-7.952.001l-35.46-35.46c-2.191-2.191-2.19-5.759.002-7.953l5.589-5.6c5.211-5.224 7.384-7.402 8.739-8.636-11.741-6.723-24.471-11.146-36.986-12.832-3.229-.436-5.828-2.874-6.467-6.069-.008-.038-.014-.077-.02-.115-.276-1.968.278-3.985 1.518-5.537 1.239-1.549 3.001-2.492 4.965-2.655 29.26-2.435 57.885 7.982 78.529 28.579 20.801 20.753 31.374 49.44 29.008 78.707-.297 3.667-3.211 6.581-6.779 6.778-.142.008-.281.012-.42.012zm-19.78-49.061c.026 0 .053.001.08.002.669.026 1.281.387 1.629.96 7.882 12.973 13.026 27.25 14.875 41.287.224 1.694 1.695 2.911 3.394 2.806 1.556-.086 2.879-1.45 3.014-3.106 2.271-28.093-7.879-55.631-27.847-75.553-19.811-19.765-47.278-29.759-75.373-27.425-.855.071-1.627.485-2.171 1.167-.553.69-.796 1.55-.688 2.426.324 1.494 1.549 2.629 3.067 2.833 13.942 1.88 28.12 7.01 41.002 14.838.573.348.934.96.96 1.629.027.67-.283 1.309-.827 1.701-1.864 1.347-1.963 1.441-10.59 10.09l-5.591 5.602c-.635.635-.636 1.666-.004 2.298l35.46 35.46c.632.632 1.662.629 2.298-.003l5.609-5.6c8.641-8.618 8.734-8.718 10.082-10.582.376-.523.98-.83 1.621-.83zm24.984 42.109h.01z" fill="#3762cc" data-original="#3762CC" class="" style="fill:#3762CC"/></g><g><circle cx="212.469" cy="43.53" fill="#f9cfcf" r="25.443" data-original="#F9CFCF" class=""/></g><g><path d="m212.469 70.961c-7.027 0-14.056-2.675-19.405-8.025-10.7-10.7-10.7-28.11 0-38.811 10.699-10.699 28.111-10.699 38.811 0 10.699 10.7 10.699 28.11 0 38.811-5.351 5.35-12.379 8.025-19.406 8.025zm0-50.862c-6.004 0-12.006 2.284-16.577 6.854-9.141 9.141-9.141 24.014 0 33.154s24.014 9.141 33.154 0 9.14-24.014 0-33.154c-4.57-4.569-10.574-6.854-16.577-6.854zm17.991 41.422h.01z" fill="#3762cc" data-original="#3762CC" class="" style="fill:#3762CC"/></g><g><circle cx="43.531" cy="43.53" fill="#f9cfcf" r="25.443" data-original="#F9CFCF" class=""/></g><g><path d="m43.531 70.96c-7.027 0-14.055-2.675-19.405-8.024-10.7-10.7-10.7-28.11 0-38.811 5.183-5.184 12.075-8.038 19.405-8.038 7.331 0 14.222 2.854 19.405 8.038 10.7 10.7 10.7 28.11 0 38.811-5.349 5.349-12.377 8.024-19.405 8.024zm0-50.873c-6.262 0-12.149 2.438-16.577 6.866-9.14 9.141-9.14 24.014 0 33.154 9.142 9.142 24.015 9.14 33.154 0 9.14-9.141 9.14-24.014 0-33.154-4.427-4.428-10.315-6.866-16.577-6.866z" fill="#3762cc" data-original="#3762CC" class="" style="fill:#3762CC"/></g><g><circle cx="212.469" cy="212.47" fill="#f9cfcf" r="25.443" data-original="#F9CFCF" class=""/></g><g><path d="m212.469 239.899c-7.027 0-14.056-2.675-19.405-8.024-10.7-10.7-10.7-28.11 0-38.811 10.699-10.701 28.111-10.701 38.811 0 10.699 10.7 10.699 28.11 0 38.811-5.351 5.35-12.379 8.024-19.406 8.024zm0-50.862c-6.003 0-12.007 2.285-16.577 6.855-9.141 9.141-9.141 24.014 0 33.154 9.142 9.14 24.013 9.141 33.154 0 9.14-9.141 9.14-24.014 0-33.154-4.57-4.57-10.574-6.855-16.577-6.855z" fill="#3762cc" data-original="#3762CC" class="" style="fill:#3762CC"/></g><g><circle cx="43.531" cy="212.47" fill="#f9cfcf" r="25.443" data-original="#F9CFCF" class=""/></g><g><path d="m43.531 239.913c-7.33 0-14.222-2.854-19.405-8.038-10.7-10.7-10.7-28.11 0-38.811s28.111-10.699 38.811 0c10.7 10.7 10.7 28.11 0 38.811-5.184 5.184-12.075 8.038-19.406 8.038zm0-50.875c-6.004 0-12.006 2.284-16.577 6.854-9.14 9.141-9.14 24.014 0 33.154 4.428 4.428 10.315 6.866 16.577 6.866s12.149-2.438 16.577-6.866c9.14-9.141 9.14-24.014 0-33.154-4.569-4.569-10.574-6.854-16.577-6.854z" fill="#3762cc" data-original="#3762CC" class="" style="fill:#3762CC"/></g><g><path d="m163.436 114.577h-22.013v-22.013c0-1.186-.961-2.147-2.148-2.147h-22.55c-1.186 0-2.148.962-2.148 2.147v22.014h-22.013c-1.186 0-2.148.962-2.148 2.147v22.551c0 1.186.961 2.147 2.148 2.147h22.013v22.013c0 1.187.961 2.148 2.148 2.148h22.55c1.186 0 2.148-.962 2.148-2.148v-22.013h22.013c1.186 0 2.148-.962 2.148-2.147v-22.551c0-1.186-.962-2.148-2.148-2.148z" fill="#f9a7a7" data-original="#F9A7A7" class="active-path" style="fill:#297D3C" data-old_color="#f9a7a7"/></g><g><path d="m139.275 167.584h-22.55c-2.287 0-4.148-1.861-4.148-4.148v-20.013h-20.013c-2.287 0-4.147-1.86-4.147-4.147v-22.551c0-2.287 1.86-4.147 4.147-4.147h20.013v-20.015c0-2.287 1.861-4.147 4.148-4.147h22.55c2.287 0 4.147 1.86 4.147 4.147v20.014h20.013c2.287 0 4.148 1.86 4.148 4.147v22.551c0 2.287-1.861 4.147-4.148 4.147h-20.013v20.013c.001 2.288-1.86 4.149-4.147 4.149zm-46.711-51.007c-.082 0-.147.066-.147.147v22.551c0 .081.066.147.147.147h22.013c1.104 0 2 .896 2 2v22.013c0 .082.066.148.148.148h22.55c.081 0 .147-.066.147-.148v-22.013c0-1.104.896-2 2-2h22.013c.082 0 .148-.066.148-.147v-22.551c0-.081-.066-.147-.148-.147h-22.013c-1.104 0-2-.896-2-2v-22.014c0-.081-.066-.147-.147-.147h-22.55c-.082 0-.148.066-.148.147v22.014c0 1.104-.896 2-2 2z" fill="#3762cc" data-original="#3762CC" class="" style="fill:#3762CC"/></g></g></g> </svg>
