<?xml version="1.0"?>
<svg xmlns="http://www.w3.org/2000/svg" id="_x31__x2C_5" enable-background="new 0 0 24 24" height="512px" viewBox="0 0 24 24" width="512px" class=""><g><path d="m20.325 5.95h-16.65c-1.368 0-2.475 1.107-2.475 2.475v12.15c0 1.368 1.107 2.475 2.475 2.475h14.575v-4.362c0-.369.306-.675.675-.675h3.875v-9.588c0-1.368-1.107-2.475-2.475-2.475z" fill="#1976d2" data-original="#1976D2" class="" style="fill:#FFFFFF" data-old_color="#1976d2"/><path d="m23.382 18.118v.608c0 .162-.065.316-.178.429l-4.05 4.05c-.113.113-.267.178-.429.178h-.608v-4.657c0-.332.275-.608.608-.608z" fill="#2196f3" data-original="#2196F3" class="active-path" data-old_color="#2196f3" style="fill:#F6F6F6"/><path d="m12 3.62c-.893 0-1.62-.727-1.62-1.62s.727-1.62 1.62-1.62 1.62.727 1.62 1.62-.727 1.62-1.62 1.62z" fill="#ffc107" data-original="#FFC107" class=""/><path d="m18.25 24h-15.5c-1.517 0-2.75-1.233-2.75-2.75v-13.5c0-1.517 1.233-2.75 2.75-2.75h6.25c.414 0 .75.336.75.75s-.336.75-.75.75h-6.25c-.689 0-1.25.561-1.25 1.25v13.5c0 .689.561 1.25 1.25 1.25h15.189l4.561-4.561v-10.189c0-.689-.561-1.25-1.25-1.25h-6.25c-.414 0-.75-.336-.75-.75s.336-.75.75-.75h6.25c1.517 0 2.75 1.233 2.75 2.75v10.5c0 .199-.079.39-.22.53l-5 5c-.14.141-.331.22-.53.22zm5-5.75h.01z" data-original="#000000" class="" style="fill:#297D3C" data-old_color="#000000"/><path d="m18.25 24c-.097 0-.194-.019-.287-.057-.28-.116-.463-.39-.463-.693v-5c0-.414.336-.75.75-.75h5c.303 0 .577.183.693.463s.052.603-.163.817l-5 5c-.143.144-.335.22-.53.22zm.75-5v2.439l2.439-2.439z" data-original="#000000" class="" style="fill:#297D3C" data-old_color="#000000"/><path d="m12 9c-.414 0-.75-.336-.75-.75v-4.75c0-.414.336-.75.75-.75s.75.336.75.75v4.75c0 .414-.336.75-.75.75z" data-original="#000000" class="" style="fill:#297D3C" data-old_color="#000000"/><path d="m12 4c-1.103 0-2-.897-2-2s.897-2 2-2 2 .897 2 2-.897 2-2 2zm0-2.5c-.276 0-.5.225-.5.5s.224.5.5.5.5-.225.5-.5-.224-.5-.5-.5z" data-original="#000000" class="" style="fill:#297D3C" data-old_color="#000000"/><path d="m19.25 12.5h-14.5c-.414 0-.75-.336-.75-.75s.336-.75.75-.75h14.5c.414 0 .75.336.75.75s-.336.75-.75.75z" data-original="#000000" class="" style="fill:#297D3C" data-old_color="#000000"/><path d="m19.25 16.5h-14.5c-.414 0-.75-.336-.75-.75s.336-.75.75-.75h14.5c.414 0 .75.336.75.75s-.336.75-.75.75z" data-original="#000000" class="" style="fill:#297D3C" data-old_color="#000000"/><path d="m15.25 20.5h-10.5c-.414 0-.75-.336-.75-.75s.336-.75.75-.75h10.5c.414 0 .75.336.75.75s-.336.75-.75.75z" data-original="#000000" class="" style="fill:#297D3C" data-old_color="#000000"/></g> </svg>
