<svg id="Capa_1" enable-background="new 0 0 512 512" height="512" viewBox="0 0 512 512" width="512" xmlns="http://www.w3.org/2000/svg"><g><path d="m349.952 512h-187.904c-41.661 0-75.434-33.773-75.434-75.434v-307.142c0-41.661 33.773-75.434 75.434-75.434h187.904c41.661 0 75.434 33.773 75.434 75.434v307.142c0 41.661-33.773 75.434-75.434 75.434z" fill="#4e5660"/><path d="m425.386 222.549v-93.124c0-41.661-33.773-75.434-75.434-75.434h-187.904c-41.661 0-75.434 33.773-75.434 75.434v93.125c21.481 24.721 51.703 44.705 88.186 56.992l31.349 44.421c11.417 16.176 30.053 25.835 49.852 25.836h.004c19.793 0 38.426-9.656 49.841-25.83l31.353-44.427c36.483-12.288 66.706-32.272 88.187-56.993z" fill="#3a4351"/><path d="m347.343 435.179h-182.686c-20.401 0-36.939-16.538-36.939-36.939v-266.207c0-20.401 16.538-36.939 36.939-36.939h182.687c20.401 0 36.939 16.538 36.939 36.939v266.208c-.001 20.4-16.539 36.938-36.94 36.938z" fill="#a0e7e7"/><path d="m384.282 132.033c0-20.401-16.538-36.939-36.939-36.939h-182.686c-20.401 0-36.939 16.538-36.939 36.939v125.352c14.137 8.883 29.914 16.374 47.082 22.156l31.349 44.421c11.417 16.176 30.053 25.835 49.852 25.836h.004c19.793 0 38.426-9.656 49.841-25.83l31.353-44.427c17.168-5.782 32.945-13.273 47.083-22.156z" fill="#8ed2e2"/><path d="m301.843 382.353h-91.686c-17.008 0-30.797-13.788-30.797-30.797v-18.595c0-17.009 13.788-30.797 30.797-30.797h91.686c17.009 0 30.797 13.788 30.797 30.797v18.595c0 17.009-13.788 30.797-30.797 30.797z" fill="#fff"/><g fill="#fff"><path d="m206.752 481.09h-26.15c-4.142 0-7.5-3.357-7.5-7.5s3.358-7.5 7.5-7.5h26.15c4.142 0 7.5 3.357 7.5 7.5 0 4.142-3.358 7.5-7.5 7.5z"/><path d="m331.398 481.09h-26.15c-4.143 0-7.5-3.357-7.5-7.5s3.357-7.5 7.5-7.5h26.15c4.142 0 7.5 3.357 7.5 7.5 0 4.142-3.358 7.5-7.5 7.5z"/></g><path d="m318.001 306.745c-4.698-2.901-10.231-4.579-16.158-4.579h-91.686c-5.927 0-11.461 1.678-16.158 4.58l12.15 17.217c11.417 16.176 30.053 25.835 49.852 25.836h.004c19.793 0 38.426-9.656 49.841-25.83z" fill="#fcf2d0"/><path d="m430.369 130.839c0-72.261-78.067-130.839-174.369-130.839s-174.369 58.578-174.369 130.839c0 53.415 42.662 99.345 103.81 119.673 5.683 1.889 10.614 5.546 14.067 10.439l31.892 45.19c11.996 16.998 37.201 17.005 49.197.007 9.994-14.161 21.593-30.596 31.901-45.203 3.452-4.891 8.379-8.543 14.059-10.432 61.149-20.328 103.812-66.259 103.812-119.674z" fill="#fcf2d0"/><path d="m280.596 306.148c6.376-9.034 13.403-18.992 20.334-28.813-155.535-36.098-140.018-224.339-100.464-270.556-69.073 17.402-118.835 66.369-118.835 124.06 0 53.415 42.662 99.345 103.81 119.673 5.683 1.889 10.614 5.546 14.067 10.439l31.892 45.19c11.995 16.998 37.2 17.005 49.196.007z" fill="#fae0bd"/><path d="m273.494 163.462v-25.707c0-2.563-2.077-4.64-4.64-4.64h-25.707c-2.563 0-4.64 2.077-4.64 4.64v25.707c0 2.563-2.077 4.64-4.64 4.64h-25.707c-2.563 0-4.64 2.077-4.64 4.64v25.707c0 2.563 2.077 4.64 4.64 4.64h25.707c2.563 0 4.64 2.077 4.64 4.64v25.707c0 2.563 2.077 4.64 4.64 4.64h25.707c2.563 0 4.64-2.077 4.64-4.64v-25.707c0-2.563 2.077-4.64 4.64-4.64h25.707c2.563 0 4.64-2.077 4.64-4.64v-25.707c0-2.563-2.077-4.64-4.64-4.64h-25.707c-2.563 0-4.64-2.078-4.64-4.64z" fill="#eda1ab"/><g><g fill="#eda1ab"><ellipse cx="175.258" cy="94.468" rx="29.792" ry="23.725"/><ellipse cx="336.742" cy="94.468" rx="29.792" ry="23.725"/></g><g fill="#4e5660"><path d="m206.801 76.151c-4.142 0-7.5-3.357-7.5-7.5 0-3.684-2.997-6.681-6.681-6.681s-6.681 2.997-6.681 6.681c0 4.143-3.358 7.5-7.5 7.5s-7.5-3.357-7.5-7.5c0-11.955 9.726-21.681 21.681-21.681s21.681 9.726 21.681 21.681c0 4.143-3.358 7.5-7.5 7.5z"/><path d="m333.56 76.151c-4.143 0-7.5-3.357-7.5-7.5 0-3.684-2.997-6.681-6.681-6.681s-6.68 2.997-6.68 6.681c0 4.143-3.357 7.5-7.5 7.5s-7.5-3.357-7.5-7.5c0-11.955 9.726-21.681 21.68-21.681 11.955 0 21.681 9.726 21.681 21.681 0 4.143-3.358 7.5-7.5 7.5z"/><path d="m256 99.578c-7.933 0-15.476-3.436-20.696-9.425-2.722-3.123-2.396-7.86.726-10.582 3.122-2.721 7.859-2.396 10.581.727 2.371 2.72 5.792 4.28 9.388 4.28s7.018-1.561 9.388-4.28c2.723-3.123 7.46-3.448 10.582-.727 3.123 2.722 3.448 7.459.727 10.582-5.22 5.99-12.763 9.425-20.696 9.425z"/></g></g></g></svg>