<svg id="Capa_1" enable-background="new 0 0 512 512" height="512" viewBox="0 0 512 512" width="512" xmlns="http://www.w3.org/2000/svg"><g id="XMLID_1078_"><path id="XMLID_1506_" d="m133.005 453.76-99.409-99.409c-10.442-10.442-10.402-27.383.088-37.776 10.422-10.325 27.23-10.285 37.603.09l79.509 79.532z" fill="#f2cba9"/><g id="XMLID_1441_"><path id="XMLID_1442_" d="m132 50v92.932c0 75.29 51.74 141.386 124.086 160 72.252-18.676 123.914-84.733 123.914-159.956v-92.976l-124-40z" fill="#98eaf9"/></g><path id="XMLID_1396_" d="m312 124.5h-34v-34h-44v34h-34v44h34v34h44v-34h34z" fill="#d5ea79"/><path id="XMLID_1080_" d="m160.671 446.608-70.292-121.75c-7.383-12.788-2.96-29.142 9.862-36.466 12.74-7.276 28.964-2.887 36.298 9.82l56.216 97.401z" fill="#f2cba9"/><g id="XMLID_1072_"><g id="XMLID_1073_"><path id="XMLID_1074_" d="m502 391.283h-111.115l-31.853-24.374c-15.202-11.632-33.811-17.936-52.953-17.936-23.388 0-45.794 9.402-62.179 26.091l-15.924 16.22s-46.326 0-74.235.001c-14.678 0-26.571 11.899-26.571 26.577 0 14.677 11.898 26.575 26.575 26.576l116.912.002h-63.383-64.81l-86.967-86.99c-10.373-10.375-27.18-10.416-37.603-.09-10.491 10.393-10.53 27.335-.088 37.776l89.527 89.527c11.102 11.1 26.159 17.337 41.86 17.337h352.807z" fill="#f3d0b2"/></g></g><g id="XMLID_52_"><g id="XMLID_304_"><path id="XMLID_53_" d="m502 492h-352.807c-13.142 0-25.497-5.118-34.79-14.411l-89.526-89.527c-3.155-3.155-4.888-7.35-4.877-11.811.01-4.462 1.762-8.649 4.932-11.79 6.492-6.432 17.03-6.408 23.492.057l86.968 86.99c1.876 1.875 4.42 2.93 7.072 2.93h128.192c5.522 0 10-4.478 10-10 0-5.523-4.477-10-10-10l-116.912-.002c-9.14 0-16.575-7.436-16.575-16.576s7.434-16.576 16.571-16.577h74.235c2.685 0 5.256-1.079 7.136-2.994l15.924-16.22c14.411-14.678 34.474-23.096 55.043-23.096 16.848 0 33.495 5.639 46.876 15.878l31.854 24.374c1.745 1.335 3.88 2.059 6.077 2.059h111.115c5.523 0 10-4.477 10-10s-4.478-10-10-10h-107.728l-29.163-22.316c-16.851-12.893-37.814-19.994-59.03-19.994-25.902 0-51.167 10.601-69.314 29.085l-12.984 13.226h-27.749l-50.832-88.073c-10.058-17.424-32.451-23.479-49.92-13.504-8.528 4.872-14.637 12.775-17.201 22.256-.564 2.086-.931 4.192-1.124 6.3-14.307-12.883-36.478-12.495-50.309 1.206-9.626 9.537-12.981 23.327-9.529 35.818-2.22 1.397-4.325 3.045-6.262 4.964-6.977 6.914-10.832 16.131-10.855 25.952-.022 9.822 3.789 19.056 10.734 26.001l89.526 89.527c13.072 13.07 30.45 20.268 48.933 20.268h352.807c5.523 0 10-4.477 10-10s-4.477-10-10-10zm-404.614-184.814c1.165-4.307 3.94-7.898 7.814-10.111 7.936-4.535 18.109-1.782 22.679 6.134l45.061 78.074h-22.912l-36.745-36.755-14.244-24.671c-2.231-3.863-2.818-8.363-1.653-12.671zm-56.663 16.493c6.491-6.432 17.03-6.407 23.492.057l66.07 66.089c-5.247 4.398-9.245 10.238-11.379 16.905l-56.337-56.352c-7.217-7.22-16.746-10.782-26.25-10.697-1.446-5.6.097-11.735 4.404-16.002z"/><path id="XMLID_1129_" d="m234 212.5h44c5.523 0 10-4.477 10-10v-24h24c5.523 0 10-4.477 10-10v-44c0-5.523-4.477-10-10-10h-24v-24c0-5.523-4.477-10-10-10h-44c-5.522 0-10 4.477-10 10v24h-24c-5.522 0-10 4.477-10 10v44c0 5.523 4.478 10 10 10h24v24c0 5.523 4.478 10 10 10zm-24-54v-24h24c5.523 0 10-4.477 10-10v-24h24v24c0 5.523 4.478 10 10 10h24v24h-24c-5.522 0-10 4.477-10 10v24h-24v-24c0-5.523-4.477-10-10-10z"/><path id="XMLID_1132_" d="m253.594 312.617c.817.21 1.655.315 2.492.315.841 0 1.682-.106 2.503-.318 60.039-15.52 107.878-62.401 124.848-122.348 1.504-5.314-1.584-10.841-6.898-12.346-5.319-1.507-10.841 1.585-12.346 6.898-14.805 52.301-56.1 93.377-108.113 107.764-67.299-18.504-114.08-79.672-114.08-149.65v-85.65l114-36.774 114 36.774v40.694c0 5.523 4.478 10 10 10 5.523 0 10-4.477 10-10v-47.976c0-4.34-2.8-8.185-6.93-9.517l-124-40c-1.996-.643-4.145-.643-6.141 0l-124 40c-4.129 1.332-6.929 5.177-6.929 9.517v92.932c0 38.556 13.147 76.695 37.019 107.392 23.797 30.601 57.384 52.724 94.575 62.293z"/><path id="XMLID_1133_" d="m380 132.98c-2.63 0-5.21 1.06-7.07 2.92-1.86 1.87-2.93 4.44-2.93 7.08 0 2.63 1.069 5.21 2.93 7.07 1.86 1.86 4.44 2.93 7.07 2.93s5.21-1.07 7.069-2.93c1.86-1.86 2.931-4.44 2.931-7.07 0-2.64-1.07-5.21-2.931-7.08-1.859-1.86-4.439-2.92-7.069-2.92z"/></g></g></g></svg>